<?xml version="1.0" encoding="UTF-8" standalone="no"?>
<!DOCTYPE svg PUBLIC "-//W3C//DTD SVG 1.1//EN"
 "http://www.w3.org/Graphics/SVG/1.1/DTD/svg11.dtd">
<!-- Generated by graphviz version 2.47.0 (20210316.0004)
 -->
<!-- Title: dependencies Pages: 1 -->
<svg width="892pt" height="284pt"
 viewBox="0.00 0.00 892.00 284.00" xmlns="http://www.w3.org/2000/svg" xmlns:xlink="http://www.w3.org/1999/xlink">
<g id="graph0" class="graph" transform="scale(1 1) rotate(0) translate(4 280)">
<title>dependencies</title>
<polygon fill="white" stroke="transparent" points="-4,4 -4,-280 888,-280 888,4 -4,4"/>
<text text-anchor="start" x="421.01" y="-42.4" font-family="Times-12" font-weight="bold" font-size="14.00">Legend</text>
<polygon fill="#ffffb3" stroke="transparent" points="208,-10 208,-30 228,-30 228,-10 208,-10"/>
<text text-anchor="start" x="231.63" y="-15.4" font-family="Times-12" font-size="14.00"> &#160;Declarations</text>
<polygon fill="#8dd3c7" stroke="transparent" points="321,-10 321,-30 341,-30 341,-10 321,-10"/>
<text text-anchor="start" x="344.73" y="-15.4" font-family="Times-12" font-size="14.00"> &#160;Module</text>
<polygon fill="#80b1d3" stroke="transparent" points="407,-10 407,-30 427,-30 427,-10 407,-10"/>
<text text-anchor="start" x="430.78" y="-15.4" font-family="Times-12" font-size="14.00"> &#160;Bootstrap</text>
<polygon fill="#fdb462" stroke="transparent" points="504,-10 504,-30 524,-30 524,-10 504,-10"/>
<text text-anchor="start" x="527.67" y="-15.4" font-family="Times-12" font-size="14.00"> &#160;Providers</text>
<polygon fill="#fb8072" stroke="transparent" points="600,-10 600,-30 620,-30 620,-10 600,-10"/>
<text text-anchor="start" x="623.73" y="-15.4" font-family="Times-12" font-size="14.00"> &#160;Exports</text>
<g id="clust1" class="cluster">
<title>cluster_AuthModule</title>
<polygon fill="none" stroke="black" stroke-dasharray="1,5" points="8,-70 8,-268 876,-268 876,-70 8,-70"/>
</g>
<g id="clust6" class="cluster">
<title>cluster_AuthModule_providers</title>
<polygon fill="none" stroke="black" points="140,-78 140,-130 868,-130 868,-78 140,-78"/>
</g>
<g id="clust3" class="cluster">
<title>cluster_AuthModule_imports</title>
<polygon fill="none" stroke="black" points="16,-78 16,-130 132,-130 132,-78 16,-78"/>
</g>
<g id="clust4" class="cluster">
<title>cluster_AuthModule_exports</title>
<polygon fill="none" stroke="black" points="383,-208 383,-260 489,-260 489,-208 383,-208"/>
</g>
<!-- DrizzleModule -->
<g id="node1" class="node">
<title>DrizzleModule</title>
<polygon fill="#8dd3c7" stroke="black" points="124.24,-122 121.24,-126 100.24,-126 97.24,-122 23.76,-122 23.76,-86 124.24,-86 124.24,-122"/>
<text text-anchor="middle" x="74" y="-99.8" font-family="Times,serif" font-size="14.00">DrizzleModule</text>
</g>
<!-- AuthModule -->
<g id="node2" class="node">
<title>AuthModule</title>
<polygon fill="#8dd3c7" stroke="black" points="479.55,-187 476.55,-191 455.55,-191 452.55,-187 392.45,-187 392.45,-151 479.55,-151 479.55,-187"/>
<text text-anchor="middle" x="436" y="-164.8" font-family="Times,serif" font-size="14.00">AuthModule</text>
</g>
<!-- DrizzleModule&#45;&gt;AuthModule -->
<g id="edge1" class="edge">
<title>DrizzleModule&#45;&gt;AuthModule</title>
<path fill="none" stroke="black" d="M74,-122.28C74,-143.32 74,-175 74,-175 74,-175 382.33,-175 382.33,-175"/>
<polygon fill="black" stroke="black" points="382.33,-178.5 392.33,-175 382.33,-171.5 382.33,-178.5"/>
</g>
<!-- AuthService  -->
<g id="node3" class="node">
<title>AuthService </title>
<polygon fill="#fb8072" stroke="black" points="480.98,-252 391.02,-252 391.02,-216 480.98,-216 480.98,-252"/>
<text text-anchor="middle" x="436" y="-229.8" font-family="Times,serif" font-size="14.00">AuthService </text>
</g>
<!-- AuthModule&#45;&gt;AuthService  -->
<g id="edge2" class="edge">
<title>AuthModule&#45;&gt;AuthService </title>
<path fill="none" stroke="black" stroke-dasharray="5,2" d="M436,-187.11C436,-187.11 436,-205.99 436,-205.99"/>
<polygon fill="black" stroke="black" points="432.5,-205.99 436,-215.99 439.5,-205.99 432.5,-205.99"/>
</g>
<!-- AuthService -->
<g id="node4" class="node">
<title>AuthService</title>
<ellipse fill="#fdb462" stroke="black" cx="801" cy="-104" rx="59.11" ry="18"/>
<text text-anchor="middle" x="801" y="-99.8" font-family="Times,serif" font-size="14.00">AuthService</text>
</g>
<!-- AuthService&#45;&gt;AuthModule -->
<g id="edge3" class="edge">
<title>AuthService&#45;&gt;AuthModule</title>
<path fill="none" stroke="black" d="M801,-122.28C801,-143.32 801,-175 801,-175 801,-175 489.66,-175 489.66,-175"/>
<polygon fill="black" stroke="black" points="489.67,-171.5 479.66,-175 489.66,-178.5 489.67,-171.5"/>
</g>
<!-- GoogleStrategy -->
<g id="node5" class="node">
<title>GoogleStrategy</title>
<ellipse fill="#fdb462" stroke="black" cx="652" cy="-104" rx="71.79" ry="18"/>
<text text-anchor="middle" x="652" y="-99.8" font-family="Times,serif" font-size="14.00">GoogleStrategy</text>
</g>
<!-- GoogleStrategy&#45;&gt;AuthModule -->
<g id="edge4" class="edge">
<title>GoogleStrategy&#45;&gt;AuthModule</title>
<path fill="none" stroke="black" d="M652,-122.02C652,-139.37 652,-163 652,-163 652,-163 489.71,-163 489.71,-163"/>
<polygon fill="black" stroke="black" points="489.71,-159.5 479.71,-163 489.71,-166.5 489.71,-159.5"/>
</g>
<!-- JwtStrategy -->
<g id="node6" class="node">
<title>JwtStrategy</title>
<ellipse fill="#fdb462" stroke="black" cx="506" cy="-104" rx="56.76" ry="18"/>
<text text-anchor="middle" x="506" y="-99.8" font-family="Times,serif" font-size="14.00">JwtStrategy</text>
</g>
<!-- JwtStrategy&#45;&gt;AuthModule -->
<g id="edge5" class="edge">
<title>JwtStrategy&#45;&gt;AuthModule</title>
<path fill="none" stroke="black" d="M464.57,-116.53C464.57,-116.53 464.57,-140.85 464.57,-140.85"/>
<polygon fill="black" stroke="black" points="461.07,-140.85 464.57,-150.85 468.07,-140.85 461.07,-140.85"/>
</g>
<!-- LocalStrategy -->
<g id="node7" class="node">
<title>LocalStrategy</title>
<ellipse fill="#fdb462" stroke="black" cx="366" cy="-104" rx="65.41" ry="18"/>
<text text-anchor="middle" x="366" y="-99.8" font-family="Times,serif" font-size="14.00">LocalStrategy</text>
</g>
<!-- LocalStrategy&#45;&gt;AuthModule -->
<g id="edge6" class="edge">
<title>LocalStrategy&#45;&gt;AuthModule</title>
<path fill="none" stroke="black" d="M411.71,-116.84C411.71,-116.84 411.71,-140.52 411.71,-140.52"/>
<polygon fill="black" stroke="black" points="408.21,-140.52 411.71,-150.52 415.21,-140.52 408.21,-140.52"/>
</g>
<!-- PhoneStrategy -->
<g id="node8" class="node">
<title>PhoneStrategy</title>
<ellipse fill="#fdb462" stroke="black" cx="215" cy="-104" rx="67.22" ry="18"/>
<text text-anchor="middle" x="215" y="-99.8" font-family="Times,serif" font-size="14.00">PhoneStrategy</text>
</g>
<!-- PhoneStrategy&#45;&gt;AuthModule -->
<g id="edge7" class="edge">
<title>PhoneStrategy&#45;&gt;AuthModule</title>
<path fill="none" stroke="black" d="M215,-122.02C215,-139.37 215,-163 215,-163 215,-163 382.34,-163 382.34,-163"/>
<polygon fill="black" stroke="black" points="382.34,-166.5 392.34,-163 382.34,-159.5 382.34,-166.5"/>
</g>
</g>
</svg>
