<?xml version="1.0" encoding="UTF-8" standalone="no"?>
<!DOCTYPE svg PUBLIC "-//W3C//DTD SVG 1.1//EN"
 "http://www.w3.org/Graphics/SVG/1.1/DTD/svg11.dtd">
<!-- Generated by graphviz version 2.47.0 (20210316.0004)
 -->
<!-- Title: dependencies Pages: 1 -->
<svg width="504pt" height="284pt"
 viewBox="0.00 0.00 504.00 284.00" xmlns="http://www.w3.org/2000/svg" xmlns:xlink="http://www.w3.org/1999/xlink">
<g id="graph0" class="graph" transform="scale(1 1) rotate(0) translate(4 280)">
<title>dependencies</title>
<polygon fill="white" stroke="transparent" points="-4,4 -4,-280 500,-280 500,4 -4,4"/>
<text text-anchor="start" x="227.01" y="-42.4" font-family="Times-12" font-weight="bold" font-size="14.00">Legend</text>
<polygon fill="#ffffb3" stroke="transparent" points="14,-10 14,-30 34,-30 34,-10 14,-10"/>
<text text-anchor="start" x="37.63" y="-15.4" font-family="Times-12" font-size="14.00"> &#160;Declarations</text>
<polygon fill="#8dd3c7" stroke="transparent" points="127,-10 127,-30 147,-30 147,-10 127,-10"/>
<text text-anchor="start" x="150.73" y="-15.4" font-family="Times-12" font-size="14.00"> &#160;Module</text>
<polygon fill="#80b1d3" stroke="transparent" points="213,-10 213,-30 233,-30 233,-10 213,-10"/>
<text text-anchor="start" x="236.78" y="-15.4" font-family="Times-12" font-size="14.00"> &#160;Bootstrap</text>
<polygon fill="#fdb462" stroke="transparent" points="310,-10 310,-30 330,-30 330,-10 310,-10"/>
<text text-anchor="start" x="333.67" y="-15.4" font-family="Times-12" font-size="14.00"> &#160;Providers</text>
<polygon fill="#fb8072" stroke="transparent" points="406,-10 406,-30 426,-30 426,-10 406,-10"/>
<text text-anchor="start" x="429.73" y="-15.4" font-family="Times-12" font-size="14.00"> &#160;Exports</text>
<g id="clust1" class="cluster">
<title>cluster_MediaModule</title>
<polygon fill="none" stroke="black" stroke-dasharray="1,5" points="105,-70 105,-268 391,-268 391,-70 105,-70"/>
</g>
<g id="clust3" class="cluster">
<title>cluster_MediaModule_imports</title>
<polygon fill="none" stroke="black" points="267,-78 267,-130 383,-130 383,-78 267,-78"/>
</g>
<g id="clust4" class="cluster">
<title>cluster_MediaModule_exports</title>
<polygon fill="none" stroke="black" points="198,-208 198,-260 312,-260 312,-208 198,-208"/>
</g>
<g id="clust6" class="cluster">
<title>cluster_MediaModule_providers</title>
<polygon fill="none" stroke="black" points="113,-78 113,-130 259,-130 259,-78 113,-78"/>
</g>
<!-- DrizzleModule -->
<g id="node1" class="node">
<title>DrizzleModule</title>
<polygon fill="#8dd3c7" stroke="black" points="375.24,-122 372.24,-126 351.24,-126 348.24,-122 274.76,-122 274.76,-86 375.24,-86 375.24,-122"/>
<text text-anchor="middle" x="325" y="-99.8" font-family="Times,serif" font-size="14.00">DrizzleModule</text>
</g>
<!-- MediaModule -->
<g id="node2" class="node">
<title>MediaModule</title>
<polygon fill="#8dd3c7" stroke="black" points="302.81,-187 299.81,-191 278.81,-191 275.81,-187 207.19,-187 207.19,-151 302.81,-151 302.81,-187"/>
<text text-anchor="middle" x="255" y="-164.8" font-family="Times,serif" font-size="14.00">MediaModule</text>
</g>
<!-- DrizzleModule&#45;&gt;MediaModule -->
<g id="edge1" class="edge">
<title>DrizzleModule&#45;&gt;MediaModule</title>
<path fill="none" stroke="black" d="M288.64,-122.11C288.64,-122.11 288.64,-140.99 288.64,-140.99"/>
<polygon fill="black" stroke="black" points="285.14,-140.99 288.64,-150.99 292.14,-140.99 285.14,-140.99"/>
</g>
<!-- MediaService  -->
<g id="node3" class="node">
<title>MediaService </title>
<polygon fill="#fb8072" stroke="black" points="303.74,-252 206.26,-252 206.26,-216 303.74,-216 303.74,-252"/>
<text text-anchor="middle" x="255" y="-229.8" font-family="Times,serif" font-size="14.00">MediaService </text>
</g>
<!-- MediaModule&#45;&gt;MediaService  -->
<g id="edge2" class="edge">
<title>MediaModule&#45;&gt;MediaService </title>
<path fill="none" stroke="black" stroke-dasharray="5,2" d="M255,-187.11C255,-187.11 255,-205.99 255,-205.99"/>
<polygon fill="black" stroke="black" points="251.5,-205.99 255,-215.99 258.5,-205.99 251.5,-205.99"/>
</g>
<!-- MediaService -->
<g id="node4" class="node">
<title>MediaService</title>
<ellipse fill="#fdb462" stroke="black" cx="186" cy="-104" rx="64.82" ry="18"/>
<text text-anchor="middle" x="186" y="-99.8" font-family="Times,serif" font-size="14.00">MediaService</text>
</g>
<!-- MediaService&#45;&gt;MediaModule -->
<g id="edge3" class="edge">
<title>MediaService&#45;&gt;MediaModule</title>
<path fill="none" stroke="black" d="M229,-117.47C229,-117.47 229,-140.86 229,-140.86"/>
<polygon fill="black" stroke="black" points="225.5,-140.86 229,-150.86 232.5,-140.86 225.5,-140.86"/>
</g>
</g>
</svg>
