<?xml version="1.0" encoding="UTF-8" standalone="no"?>
<!DOCTYPE svg PUBLIC "-//W3C//DTD SVG 1.1//EN"
 "http://www.w3.org/Graphics/SVG/1.1/DTD/svg11.dtd">
<!-- Generated by graphviz version 2.47.0 (20210316.0004)
 -->
<!-- Title: dependencies Pages: 1 -->
<svg width="504pt" height="284pt"
 viewBox="0.00 0.00 504.00 284.00" xmlns="http://www.w3.org/2000/svg" xmlns:xlink="http://www.w3.org/1999/xlink">
<g id="graph0" class="graph" transform="scale(1 1) rotate(0) translate(4 280)">
<title>dependencies</title>
<polygon fill="white" stroke="transparent" points="-4,4 -4,-280 500,-280 500,4 -4,4"/>
<text text-anchor="start" x="227.01" y="-42.4" font-family="Times-12" font-weight="bold" font-size="14.00">Legend</text>
<polygon fill="#ffffb3" stroke="transparent" points="14,-10 14,-30 34,-30 34,-10 14,-10"/>
<text text-anchor="start" x="37.63" y="-15.4" font-family="Times-12" font-size="14.00"> &#160;Declarations</text>
<polygon fill="#8dd3c7" stroke="transparent" points="127,-10 127,-30 147,-30 147,-10 127,-10"/>
<text text-anchor="start" x="150.73" y="-15.4" font-family="Times-12" font-size="14.00"> &#160;Module</text>
<polygon fill="#80b1d3" stroke="transparent" points="213,-10 213,-30 233,-30 233,-10 213,-10"/>
<text text-anchor="start" x="236.78" y="-15.4" font-family="Times-12" font-size="14.00"> &#160;Bootstrap</text>
<polygon fill="#fdb462" stroke="transparent" points="310,-10 310,-30 330,-30 330,-10 310,-10"/>
<text text-anchor="start" x="333.67" y="-15.4" font-family="Times-12" font-size="14.00"> &#160;Providers</text>
<polygon fill="#fb8072" stroke="transparent" points="406,-10 406,-30 426,-30 426,-10 406,-10"/>
<text text-anchor="start" x="429.73" y="-15.4" font-family="Times-12" font-size="14.00"> &#160;Exports</text>
<g id="clust1" class="cluster">
<title>cluster_LunarModule</title>
<polygon fill="none" stroke="black" stroke-dasharray="1,5" points="9,-70 9,-268 487,-268 487,-70 9,-70"/>
</g>
<g id="clust6" class="cluster">
<title>cluster_LunarModule_providers</title>
<polygon fill="none" stroke="black" points="141,-78 141,-130 479,-130 479,-78 141,-78"/>
</g>
<g id="clust3" class="cluster">
<title>cluster_LunarModule_imports</title>
<polygon fill="none" stroke="black" points="17,-78 17,-130 133,-130 133,-78 17,-78"/>
</g>
<g id="clust4" class="cluster">
<title>cluster_LunarModule_exports</title>
<polygon fill="none" stroke="black" points="91,-208 91,-260 353,-260 353,-208 91,-208"/>
</g>
<!-- DrizzleModule -->
<g id="node1" class="node">
<title>DrizzleModule</title>
<polygon fill="#8dd3c7" stroke="black" points="125.24,-122 122.24,-126 101.24,-126 98.24,-122 24.76,-122 24.76,-86 125.24,-86 125.24,-122"/>
<text text-anchor="middle" x="75" y="-99.8" font-family="Times,serif" font-size="14.00">DrizzleModule</text>
</g>
<!-- LunarModule -->
<g id="node2" class="node">
<title>LunarModule</title>
<polygon fill="#8dd3c7" stroke="black" points="258.48,-187 255.48,-191 234.48,-191 231.48,-187 165.52,-187 165.52,-151 258.48,-151 258.48,-187"/>
<text text-anchor="middle" x="212" y="-164.8" font-family="Times,serif" font-size="14.00">LunarModule</text>
</g>
<!-- DrizzleModule&#45;&gt;LunarModule -->
<g id="edge1" class="edge">
<title>DrizzleModule&#45;&gt;LunarModule</title>
<path fill="none" stroke="black" d="M111.96,-122.11C111.96,-141.34 111.96,-169 111.96,-169 111.96,-169 155.49,-169 155.49,-169"/>
<polygon fill="black" stroke="black" points="155.49,-172.5 165.49,-169 155.49,-165.5 155.49,-172.5"/>
</g>
<!-- LunarEventsService  -->
<g id="node3" class="node">
<title>LunarEventsService </title>
<polygon fill="#fb8072" stroke="black" points="344.51,-252 211.49,-252 211.49,-216 344.51,-216 344.51,-252"/>
<text text-anchor="middle" x="278" y="-229.8" font-family="Times,serif" font-size="14.00">LunarEventsService </text>
</g>
<!-- LunarModule&#45;&gt;LunarEventsService  -->
<g id="edge2" class="edge">
<title>LunarModule&#45;&gt;LunarEventsService </title>
<path fill="none" stroke="black" stroke-dasharray="5,2" d="M234.99,-187.11C234.99,-187.11 234.99,-205.99 234.99,-205.99"/>
<polygon fill="black" stroke="black" points="231.49,-205.99 234.99,-215.99 238.49,-205.99 231.49,-205.99"/>
</g>
<!-- LunarService  -->
<g id="node4" class="node">
<title>LunarService </title>
<polygon fill="#fb8072" stroke="black" points="193.41,-252 98.59,-252 98.59,-216 193.41,-216 193.41,-252"/>
<text text-anchor="middle" x="146" y="-229.8" font-family="Times,serif" font-size="14.00">LunarService </text>
</g>
<!-- LunarModule&#45;&gt;LunarService  -->
<g id="edge3" class="edge">
<title>LunarModule&#45;&gt;LunarService </title>
<path fill="none" stroke="black" stroke-dasharray="5,2" d="M179.48,-187.11C179.48,-187.11 179.48,-205.99 179.48,-205.99"/>
<polygon fill="black" stroke="black" points="175.98,-205.99 179.48,-215.99 182.98,-205.99 175.98,-205.99"/>
</g>
<!-- LunarEventsService -->
<g id="node5" class="node">
<title>LunarEventsService</title>
<ellipse fill="#fdb462" stroke="black" cx="382" cy="-104" rx="89.16" ry="18"/>
<text text-anchor="middle" x="382" y="-99.8" font-family="Times,serif" font-size="14.00">LunarEventsService</text>
</g>
<!-- LunarEventsService&#45;&gt;LunarModule -->
<g id="edge4" class="edge">
<title>LunarEventsService&#45;&gt;LunarModule</title>
<path fill="none" stroke="black" d="M318.59,-116.84C318.59,-135.78 318.59,-169 318.59,-169 318.59,-169 268.75,-169 268.75,-169"/>
<polygon fill="black" stroke="black" points="268.75,-165.5 258.75,-169 268.75,-172.5 268.75,-165.5"/>
</g>
<!-- LunarService -->
<g id="node6" class="node">
<title>LunarService</title>
<ellipse fill="#fdb462" stroke="black" cx="212" cy="-104" rx="63.1" ry="18"/>
<text text-anchor="middle" x="212" y="-99.8" font-family="Times,serif" font-size="14.00">LunarService</text>
</g>
<!-- LunarService&#45;&gt;LunarModule -->
<g id="edge5" class="edge">
<title>LunarService&#45;&gt;LunarModule</title>
<path fill="none" stroke="black" d="M212,-122.11C212,-122.11 212,-140.99 212,-140.99"/>
<polygon fill="black" stroke="black" points="208.5,-140.99 212,-150.99 215.5,-140.99 208.5,-140.99"/>
</g>
</g>
</svg>
