<?xml version="1.0" encoding="UTF-8" standalone="no"?>
<!DOCTYPE svg PUBLIC "-//W3C//DTD SVG 1.1//EN"
 "http://www.w3.org/Graphics/SVG/1.1/DTD/svg11.dtd">
<!-- Generated by graphviz version 2.47.0 (20210316.0004)
 -->
<!-- Title: dependencies Pages: 1 -->
<svg width="862pt" height="211pt"
 viewBox="0.00 0.00 862.00 211.00" xmlns="http://www.w3.org/2000/svg" xmlns:xlink="http://www.w3.org/1999/xlink">
<g id="graph0" class="graph" transform="scale(1 1) rotate(0) translate(4 207)">
<title>dependencies</title>
<polygon fill="white" stroke="transparent" points="-4,4 -4,-207 858,-207 858,4 -4,4"/>
<text text-anchor="start" x="406.01" y="-42.4" font-family="Times-12" font-weight="bold" font-size="14.00">Legend</text>
<polygon fill="#ffffb3" stroke="transparent" points="193,-10 193,-30 213,-30 213,-10 193,-10"/>
<text text-anchor="start" x="216.63" y="-15.4" font-family="Times-12" font-size="14.00"> &#160;Declarations</text>
<polygon fill="#8dd3c7" stroke="transparent" points="306,-10 306,-30 326,-30 326,-10 306,-10"/>
<text text-anchor="start" x="329.73" y="-15.4" font-family="Times-12" font-size="14.00"> &#160;Module</text>
<polygon fill="#80b1d3" stroke="transparent" points="392,-10 392,-30 412,-30 412,-10 392,-10"/>
<text text-anchor="start" x="415.78" y="-15.4" font-family="Times-12" font-size="14.00"> &#160;Bootstrap</text>
<polygon fill="#fdb462" stroke="transparent" points="489,-10 489,-30 509,-30 509,-10 489,-10"/>
<text text-anchor="start" x="512.67" y="-15.4" font-family="Times-12" font-size="14.00"> &#160;Providers</text>
<polygon fill="#fb8072" stroke="transparent" points="585,-10 585,-30 605,-30 605,-10 585,-10"/>
<text text-anchor="start" x="608.73" y="-15.4" font-family="Times-12" font-size="14.00"> &#160;Exports</text>
<g id="clust1" class="cluster">
<title>cluster_AppModule</title>
<polygon fill="none" stroke="black" stroke-dasharray="1,5" points="8,-70 8,-195 846,-195 846,-70 8,-70"/>
</g>
<g id="clust3" class="cluster">
<title>cluster_AppModule_imports</title>
<polygon fill="none" stroke="black" points="16,-78 16,-130 838,-130 838,-78 16,-78"/>
</g>
<!-- AppCacheModule -->
<g id="node1" class="node">
<title>AppCacheModule</title>
<polygon fill="#8dd3c7" stroke="black" points="830.14,-122 827.14,-126 806.14,-126 803.14,-122 711.86,-122 711.86,-86 830.14,-86 830.14,-122"/>
<text text-anchor="middle" x="771" y="-99.8" font-family="Times,serif" font-size="14.00">AppCacheModule</text>
</g>
<!-- AppModule -->
<g id="node8" class="node">
<title>AppModule</title>
<polygon fill="#8dd3c7" stroke="black" points="462.66,-187 459.66,-191 438.66,-191 435.66,-187 379.34,-187 379.34,-151 462.66,-151 462.66,-187"/>
<text text-anchor="middle" x="421" y="-164.8" font-family="Times,serif" font-size="14.00">AppModule</text>
</g>
<!-- AppCacheModule&#45;&gt;AppModule -->
<g id="edge1" class="edge">
<title>AppCacheModule&#45;&gt;AppModule</title>
<path fill="none" stroke="black" d="M771,-122.29C771,-144.21 771,-178 771,-178 771,-178 472.87,-178 472.87,-178"/>
<polygon fill="black" stroke="black" points="472.87,-174.5 462.87,-178 472.87,-181.5 472.87,-174.5"/>
</g>
<!-- AuthModule -->
<g id="node2" class="node">
<title>AuthModule</title>
<polygon fill="#8dd3c7" stroke="black" points="693.55,-122 690.55,-126 669.55,-126 666.55,-122 606.45,-122 606.45,-86 693.55,-86 693.55,-122"/>
<text text-anchor="middle" x="650" y="-99.8" font-family="Times,serif" font-size="14.00">AuthModule</text>
</g>
<!-- AuthModule&#45;&gt;AppModule -->
<g id="edge2" class="edge">
<title>AuthModule&#45;&gt;AppModule</title>
<path fill="none" stroke="black" d="M650,-122.11C650,-141.34 650,-169 650,-169 650,-169 472.74,-169 472.74,-169"/>
<polygon fill="black" stroke="black" points="472.74,-165.5 462.74,-169 472.74,-172.5 472.74,-165.5"/>
</g>
<!-- DrizzleModule -->
<g id="node3" class="node">
<title>DrizzleModule</title>
<polygon fill="#8dd3c7" stroke="black" points="588.24,-122 585.24,-126 564.24,-126 561.24,-122 487.76,-122 487.76,-86 588.24,-86 588.24,-122"/>
<text text-anchor="middle" x="538" y="-99.8" font-family="Times,serif" font-size="14.00">DrizzleModule</text>
</g>
<!-- DrizzleModule&#45;&gt;AppModule -->
<g id="edge3" class="edge">
<title>DrizzleModule&#45;&gt;AppModule</title>
<path fill="none" stroke="black" d="M538,-122.03C538,-138.4 538,-160 538,-160 538,-160 472.91,-160 472.91,-160"/>
<polygon fill="black" stroke="black" points="472.91,-156.5 462.91,-160 472.91,-163.5 472.91,-156.5"/>
</g>
<!-- HealthModule -->
<g id="node4" class="node">
<title>HealthModule</title>
<polygon fill="#8dd3c7" stroke="black" points="469.37,-122 466.37,-126 445.37,-126 442.37,-122 372.63,-122 372.63,-86 469.37,-86 469.37,-122"/>
<text text-anchor="middle" x="421" y="-99.8" font-family="Times,serif" font-size="14.00">HealthModule</text>
</g>
<!-- HealthModule&#45;&gt;AppModule -->
<g id="edge4" class="edge">
<title>HealthModule&#45;&gt;AppModule</title>
<path fill="none" stroke="black" d="M421,-122.11C421,-122.11 421,-140.99 421,-140.99"/>
<polygon fill="black" stroke="black" points="417.5,-140.99 421,-150.99 424.5,-140.99 417.5,-140.99"/>
</g>
<!-- LunarModule -->
<g id="node5" class="node">
<title>LunarModule</title>
<polygon fill="#8dd3c7" stroke="black" points="354.48,-122 351.48,-126 330.48,-126 327.48,-122 261.52,-122 261.52,-86 354.48,-86 354.48,-122"/>
<text text-anchor="middle" x="308" y="-99.8" font-family="Times,serif" font-size="14.00">LunarModule</text>
</g>
<!-- LunarModule&#45;&gt;AppModule -->
<g id="edge5" class="edge">
<title>LunarModule&#45;&gt;AppModule</title>
<path fill="none" stroke="black" d="M308,-122.03C308,-138.4 308,-160 308,-160 308,-160 369.24,-160 369.24,-160"/>
<polygon fill="black" stroke="black" points="369.24,-163.5 379.24,-160 369.24,-156.5 369.24,-163.5"/>
</g>
<!-- MediaModule -->
<g id="node6" class="node">
<title>MediaModule</title>
<polygon fill="#8dd3c7" stroke="black" points="243.81,-122 240.81,-126 219.81,-126 216.81,-122 148.19,-122 148.19,-86 243.81,-86 243.81,-122"/>
<text text-anchor="middle" x="196" y="-99.8" font-family="Times,serif" font-size="14.00">MediaModule</text>
</g>
<!-- MediaModule&#45;&gt;AppModule -->
<g id="edge6" class="edge">
<title>MediaModule&#45;&gt;AppModule</title>
<path fill="none" stroke="black" d="M196,-122.11C196,-141.34 196,-169 196,-169 196,-169 369.21,-169 369.21,-169"/>
<polygon fill="black" stroke="black" points="369.21,-172.5 379.21,-169 369.21,-165.5 369.21,-172.5"/>
</g>
<!-- SecurityModule -->
<g id="node7" class="node">
<title>SecurityModule</title>
<polygon fill="#8dd3c7" stroke="black" points="130.2,-122 127.2,-126 106.2,-126 103.2,-122 23.8,-122 23.8,-86 130.2,-86 130.2,-122"/>
<text text-anchor="middle" x="77" y="-99.8" font-family="Times,serif" font-size="14.00">SecurityModule</text>
</g>
<!-- SecurityModule&#45;&gt;AppModule -->
<g id="edge7" class="edge">
<title>SecurityModule&#45;&gt;AppModule</title>
<path fill="none" stroke="black" d="M77,-122.29C77,-144.21 77,-178 77,-178 77,-178 369.16,-178 369.16,-178"/>
<polygon fill="black" stroke="black" points="369.16,-181.5 379.16,-178 369.16,-174.5 369.16,-181.5"/>
</g>
</g>
</svg>
