<?xml version="1.0" encoding="UTF-8" standalone="no"?>
<!DOCTYPE svg PUBLIC "-//W3C//DTD SVG 1.1//EN"
 "http://www.w3.org/Graphics/SVG/1.1/DTD/svg11.dtd">
<!-- Generated by graphviz version 2.47.0 (20210316.0004)
 -->
<!-- Title: dependencies Pages: 1 -->
<svg width="504pt" height="284pt"
 viewBox="0.00 0.00 504.00 284.00" xmlns="http://www.w3.org/2000/svg" xmlns:xlink="http://www.w3.org/1999/xlink">
<g id="graph0" class="graph" transform="scale(1 1) rotate(0) translate(4 280)">
<title>dependencies</title>
<polygon fill="white" stroke="transparent" points="-4,4 -4,-280 500,-280 500,4 -4,4"/>
<text text-anchor="start" x="227.01" y="-42.4" font-family="Times-12" font-weight="bold" font-size="14.00">Legend</text>
<polygon fill="#ffffb3" stroke="transparent" points="14,-10 14,-30 34,-30 34,-10 14,-10"/>
<text text-anchor="start" x="37.63" y="-15.4" font-family="Times-12" font-size="14.00"> &#160;Declarations</text>
<polygon fill="#8dd3c7" stroke="transparent" points="127,-10 127,-30 147,-30 147,-10 127,-10"/>
<text text-anchor="start" x="150.73" y="-15.4" font-family="Times-12" font-size="14.00"> &#160;Module</text>
<polygon fill="#80b1d3" stroke="transparent" points="213,-10 213,-30 233,-30 233,-10 213,-10"/>
<text text-anchor="start" x="236.78" y="-15.4" font-family="Times-12" font-size="14.00"> &#160;Bootstrap</text>
<polygon fill="#fdb462" stroke="transparent" points="310,-10 310,-30 330,-30 330,-10 310,-10"/>
<text text-anchor="start" x="333.67" y="-15.4" font-family="Times-12" font-size="14.00"> &#160;Providers</text>
<polygon fill="#fb8072" stroke="transparent" points="406,-10 406,-30 426,-30 426,-10 406,-10"/>
<text text-anchor="start" x="429.73" y="-15.4" font-family="Times-12" font-size="14.00"> &#160;Exports</text>
<g id="clust1" class="cluster">
<title>cluster_HealthModule</title>
<polygon fill="none" stroke="black" stroke-dasharray="1,5" points="104,-70 104,-268 392,-268 392,-70 104,-70"/>
</g>
<g id="clust3" class="cluster">
<title>cluster_HealthModule_imports</title>
<polygon fill="none" stroke="black" points="268,-78 268,-130 384,-130 384,-78 268,-78"/>
</g>
<g id="clust4" class="cluster">
<title>cluster_HealthModule_exports</title>
<polygon fill="none" stroke="black" points="199,-208 199,-260 313,-260 313,-208 199,-208"/>
</g>
<g id="clust6" class="cluster">
<title>cluster_HealthModule_providers</title>
<polygon fill="none" stroke="black" points="112,-78 112,-130 260,-130 260,-78 112,-78"/>
</g>
<!-- DrizzleModule -->
<g id="node1" class="node">
<title>DrizzleModule</title>
<polygon fill="#8dd3c7" stroke="black" points="376.24,-122 373.24,-126 352.24,-126 349.24,-122 275.76,-122 275.76,-86 376.24,-86 376.24,-122"/>
<text text-anchor="middle" x="326" y="-99.8" font-family="Times,serif" font-size="14.00">DrizzleModule</text>
</g>
<!-- HealthModule -->
<g id="node2" class="node">
<title>HealthModule</title>
<polygon fill="#8dd3c7" stroke="black" points="304.37,-187 301.37,-191 280.37,-191 277.37,-187 207.63,-187 207.63,-151 304.37,-151 304.37,-187"/>
<text text-anchor="middle" x="256" y="-164.8" font-family="Times,serif" font-size="14.00">HealthModule</text>
</g>
<!-- DrizzleModule&#45;&gt;HealthModule -->
<g id="edge1" class="edge">
<title>DrizzleModule&#45;&gt;HealthModule</title>
<path fill="none" stroke="black" d="M290.03,-122.11C290.03,-122.11 290.03,-140.99 290.03,-140.99"/>
<polygon fill="black" stroke="black" points="286.53,-140.99 290.03,-150.99 293.53,-140.99 286.53,-140.99"/>
</g>
<!-- HealthService  -->
<g id="node3" class="node">
<title>HealthService </title>
<polygon fill="#fb8072" stroke="black" points="305.29,-252 206.71,-252 206.71,-216 305.29,-216 305.29,-252"/>
<text text-anchor="middle" x="256" y="-229.8" font-family="Times,serif" font-size="14.00">HealthService </text>
</g>
<!-- HealthModule&#45;&gt;HealthService  -->
<g id="edge2" class="edge">
<title>HealthModule&#45;&gt;HealthService </title>
<path fill="none" stroke="black" stroke-dasharray="5,2" d="M256,-187.11C256,-187.11 256,-205.99 256,-205.99"/>
<polygon fill="black" stroke="black" points="252.5,-205.99 256,-215.99 259.5,-205.99 252.5,-205.99"/>
</g>
<!-- HealthService -->
<g id="node4" class="node">
<title>HealthService</title>
<ellipse fill="#fdb462" stroke="black" cx="186" cy="-104" rx="65.97" ry="18"/>
<text text-anchor="middle" x="186" y="-99.8" font-family="Times,serif" font-size="14.00">HealthService</text>
</g>
<!-- HealthService&#45;&gt;HealthModule -->
<g id="edge3" class="edge">
<title>HealthService&#45;&gt;HealthModule</title>
<path fill="none" stroke="black" d="M229.65,-117.47C229.65,-117.47 229.65,-140.86 229.65,-140.86"/>
<polygon fill="black" stroke="black" points="226.15,-140.86 229.65,-150.86 233.15,-140.86 226.15,-140.86"/>
</g>
</g>
</svg>
