<?xml version="1.0" encoding="UTF-8" standalone="no"?>
<!DOCTYPE svg PUBLIC "-//W3C//DTD SVG 1.1//EN"
 "http://www.w3.org/Graphics/SVG/1.1/DTD/svg11.dtd">
<!-- Generated by graphviz version 2.47.0 (20210316.0004)
 -->
<!-- Title: dependencies Pages: 1 -->
<svg width="2613pt" height="382pt"
 viewBox="0.00 0.00 2613.00 382.00" xmlns="http://www.w3.org/2000/svg" xmlns:xlink="http://www.w3.org/1999/xlink">
<g id="graph0" class="graph" transform="scale(1 1) rotate(0) translate(4 378)">
<title>dependencies</title>
<polygon fill="white" stroke="transparent" points="-4,4 -4,-378 2609,-378 2609,4 -4,4"/>
<text text-anchor="start" x="1281.51" y="-42.4" font-family="Times-12" font-weight="bold" font-size="14.00">Legend</text>
<polygon fill="#ffffb3" stroke="transparent" points="1068.5,-10 1068.5,-30 1088.5,-30 1088.5,-10 1068.5,-10"/>
<text text-anchor="start" x="1092.13" y="-15.4" font-family="Times-12" font-size="14.00"> &#160;Declarations</text>
<polygon fill="#8dd3c7" stroke="transparent" points="1181.5,-10 1181.5,-30 1201.5,-30 1201.5,-10 1181.5,-10"/>
<text text-anchor="start" x="1205.23" y="-15.4" font-family="Times-12" font-size="14.00"> &#160;Module</text>
<polygon fill="#80b1d3" stroke="transparent" points="1267.5,-10 1267.5,-30 1287.5,-30 1287.5,-10 1267.5,-10"/>
<text text-anchor="start" x="1291.28" y="-15.4" font-family="Times-12" font-size="14.00"> &#160;Bootstrap</text>
<polygon fill="#fdb462" stroke="transparent" points="1364.5,-10 1364.5,-30 1384.5,-30 1384.5,-10 1364.5,-10"/>
<text text-anchor="start" x="1388.17" y="-15.4" font-family="Times-12" font-size="14.00"> &#160;Providers</text>
<polygon fill="#fb8072" stroke="transparent" points="1460.5,-10 1460.5,-30 1480.5,-30 1480.5,-10 1460.5,-10"/>
<text text-anchor="start" x="1484.23" y="-15.4" font-family="Times-12" font-size="14.00"> &#160;Exports</text>
<g id="clust7" class="cluster">
<title>cluster_AppModule</title>
<polygon fill="none" stroke="black" stroke-dasharray="1,5" points="876,-146 876,-358 1379,-358 1379,-146 876,-146"/>
</g>
<g id="clust9" class="cluster">
<title>cluster_AppModule_imports</title>
<polygon fill="none" stroke="black" points="916,-154 916,-282 1359,-282 1359,-154 916,-154"/>
</g>
<g id="clust13" class="cluster">
<title>cluster_AuthModule</title>
<polygon fill="none" stroke="black" stroke-dasharray="1,5" points="8,-146 8,-214 868,-214 868,-146 8,-146"/>
</g>
<g id="clust16" class="cluster">
<title>cluster_AuthModule_exports</title>
<polygon fill="none" stroke="black" points="754,-154 754,-206 860,-206 860,-154 754,-154"/>
</g>
<g id="clust18" class="cluster">
<title>cluster_AuthModule_providers</title>
<polygon fill="none" stroke="black" points="16,-154 16,-206 746,-206 746,-154 16,-154"/>
</g>
<g id="clust19" class="cluster">
<title>cluster_DrizzleModule</title>
<polygon fill="none" stroke="black" stroke-dasharray="1,5" points="1387,-222 1387,-290 1681,-290 1681,-222 1387,-222"/>
</g>
<g id="clust22" class="cluster">
<title>cluster_DrizzleModule_exports</title>
<polygon fill="none" stroke="black" points="1555,-230 1555,-282 1673,-282 1673,-230 1555,-230"/>
</g>
<g id="clust24" class="cluster">
<title>cluster_DrizzleModule_providers</title>
<polygon fill="none" stroke="black" points="1395,-230 1395,-282 1547,-282 1547,-230 1395,-230"/>
</g>
<g id="clust25" class="cluster">
<title>cluster_HealthModule</title>
<polygon fill="none" stroke="black" stroke-dasharray="1,5" points="1387,-298 1387,-366 1673,-366 1673,-298 1387,-298"/>
</g>
<g id="clust28" class="cluster">
<title>cluster_HealthModule_exports</title>
<polygon fill="none" stroke="black" points="1551,-306 1551,-358 1665,-358 1665,-306 1551,-306"/>
</g>
<g id="clust30" class="cluster">
<title>cluster_HealthModule_providers</title>
<polygon fill="none" stroke="black" points="1395,-306 1395,-358 1543,-358 1543,-306 1395,-306"/>
</g>
<g id="clust31" class="cluster">
<title>cluster_LunarModule</title>
<polygon fill="none" stroke="black" stroke-dasharray="1,5" points="1681,-298 1681,-366 2305,-366 2305,-298 1681,-298"/>
</g>
<g id="clust34" class="cluster">
<title>cluster_LunarModule_exports</title>
<polygon fill="none" stroke="black" points="2035,-306 2035,-358 2297,-358 2297,-306 2035,-306"/>
</g>
<g id="clust36" class="cluster">
<title>cluster_LunarModule_providers</title>
<polygon fill="none" stroke="black" points="1689,-306 1689,-358 2027,-358 2027,-306 1689,-306"/>
</g>
<g id="clust37" class="cluster">
<title>cluster_MediaModule</title>
<polygon fill="none" stroke="black" stroke-dasharray="1,5" points="2313,-298 2313,-366 2597,-366 2597,-298 2313,-298"/>
</g>
<g id="clust40" class="cluster">
<title>cluster_MediaModule_exports</title>
<polygon fill="none" stroke="black" points="2475,-306 2475,-358 2589,-358 2589,-306 2475,-306"/>
</g>
<g id="clust42" class="cluster">
<title>cluster_MediaModule_providers</title>
<polygon fill="none" stroke="black" points="2321,-306 2321,-358 2467,-358 2467,-306 2321,-306"/>
</g>
<g id="clust43" class="cluster">
<title>cluster_SecurityModule</title>
<polygon fill="none" stroke="black" stroke-dasharray="1,5" points="887,-70 887,-138 1067,-138 1067,-70 887,-70"/>
</g>
<g id="clust48" class="cluster">
<title>cluster_SecurityModule_providers</title>
<polygon fill="none" stroke="black" points="895,-78 895,-130 1059,-130 1059,-78 895,-78"/>
</g>
<!-- AppCacheModule -->
<g id="node1" class="node">
<title>AppCacheModule</title>
<polygon fill="#8dd3c7" stroke="black" points="1166.14,-198 1163.14,-202 1142.14,-202 1139.14,-198 1047.86,-198 1047.86,-162 1166.14,-162 1166.14,-198"/>
<text text-anchor="middle" x="1107" y="-175.8" font-family="Times,serif" font-size="14.00">AppCacheModule</text>
</g>
<!-- AppModule -->
<g id="node8" class="node">
<title>AppModule</title>
<polygon fill="#8dd3c7" stroke="black" points="1119.66,-350 1116.66,-354 1095.66,-354 1092.66,-350 1036.34,-350 1036.34,-314 1119.66,-314 1119.66,-350"/>
<text text-anchor="middle" x="1078" y="-327.8" font-family="Times,serif" font-size="14.00">AppModule</text>
</g>
<!-- AppCacheModule&#45;&gt;AppModule -->
<g id="edge1" class="edge">
<title>AppCacheModule&#45;&gt;AppModule</title>
<path fill="none" stroke="black" d="M1138.49,-198.2C1138.49,-237.33 1138.49,-326 1138.49,-326 1138.49,-326 1129.68,-326 1129.68,-326"/>
<polygon fill="black" stroke="black" points="1129.68,-322.5 1119.68,-326 1129.68,-329.5 1129.68,-322.5"/>
</g>
<!-- AuthModule -->
<g id="node2" class="node">
<title>AuthModule</title>
<polygon fill="#8dd3c7" stroke="black" points="1011.55,-274 1008.55,-278 987.55,-278 984.55,-274 924.45,-274 924.45,-238 1011.55,-238 1011.55,-274"/>
<text text-anchor="middle" x="968" y="-251.8" font-family="Times,serif" font-size="14.00">AuthModule</text>
</g>
<!-- AuthModule&#45;&gt;AppModule -->
<g id="edge2" class="edge">
<title>AuthModule&#45;&gt;AppModule</title>
<path fill="none" stroke="black" d="M968,-274.2C968,-298.36 968,-338 968,-338 968,-338 1026.1,-338 1026.1,-338"/>
<polygon fill="black" stroke="black" points="1026.1,-341.5 1036.1,-338 1026.1,-334.5 1026.1,-341.5"/>
</g>
<!-- AuthService  -->
<g id="node9" class="node">
<title>AuthService </title>
<polygon fill="#fb8072" stroke="black" points="851.98,-198 762.02,-198 762.02,-162 851.98,-162 851.98,-198"/>
<text text-anchor="middle" x="807" y="-175.8" font-family="Times,serif" font-size="14.00">AuthService </text>
</g>
<!-- AuthModule&#45;&gt;AuthService  -->
<g id="edge9" class="edge">
<title>AuthModule&#45;&gt;AuthService </title>
<path fill="none" stroke="black" stroke-dasharray="5,2" d="M924.43,-244C876.75,-244 807,-244 807,-244 807,-244 807,-208.17 807,-208.17"/>
<polygon fill="black" stroke="black" points="810.5,-208.17 807,-198.17 803.5,-208.17 810.5,-208.17"/>
</g>
<!-- DrizzleModule -->
<g id="node3" class="node">
<title>DrizzleModule</title>
<polygon fill="#8dd3c7" stroke="black" points="1351.24,-198 1348.24,-202 1327.24,-202 1324.24,-198 1250.76,-198 1250.76,-162 1351.24,-162 1351.24,-198"/>
<text text-anchor="middle" x="1301" y="-175.8" font-family="Times,serif" font-size="14.00">DrizzleModule</text>
</g>
<!-- DrizzleModule&#45;&gt;AuthModule -->
<g id="edge8" class="edge">
<title>DrizzleModule&#45;&gt;AuthModule</title>
<path fill="none" stroke="black" d="M1279.17,-198.24C1279.17,-205.43 1279.17,-212 1279.17,-212 1279.17,-212 968,-212 968,-212 968,-212 968,-227.85 968,-227.85"/>
<polygon fill="black" stroke="black" points="964.5,-227.85 968,-237.85 971.5,-227.85 964.5,-227.85"/>
</g>
<!-- HealthModule -->
<g id="node4" class="node">
<title>HealthModule</title>
<polygon fill="#8dd3c7" stroke="black" points="1126.37,-274 1123.37,-278 1102.37,-278 1099.37,-274 1029.63,-274 1029.63,-238 1126.37,-238 1126.37,-274"/>
<text text-anchor="middle" x="1078" y="-251.8" font-family="Times,serif" font-size="14.00">HealthModule</text>
</g>
<!-- DrizzleModule&#45;&gt;HealthModule -->
<g id="edge17" class="edge">
<title>DrizzleModule&#45;&gt;HealthModule</title>
<path fill="none" stroke="black" d="M1303,-198.04C1303,-210.56 1303,-225 1303,-225 1303,-225 1087.06,-225 1087.06,-225 1087.06,-225 1087.06,-227.97 1087.06,-227.97"/>
<polygon fill="black" stroke="black" points="1083.56,-227.97 1087.06,-237.97 1090.56,-227.97 1083.56,-227.97"/>
</g>
<!-- LunarModule -->
<g id="node5" class="node">
<title>LunarModule</title>
<polygon fill="#8dd3c7" stroke="black" points="1237.48,-274 1234.48,-278 1213.48,-278 1210.48,-274 1144.52,-274 1144.52,-238 1237.48,-238 1237.48,-274"/>
<text text-anchor="middle" x="1191" y="-251.8" font-family="Times,serif" font-size="14.00">LunarModule</text>
</g>
<!-- DrizzleModule&#45;&gt;LunarModule -->
<g id="edge20" class="edge">
<title>DrizzleModule&#45;&gt;LunarModule</title>
<path fill="none" stroke="black" d="M1250.58,-186C1226.1,-186 1201.9,-186 1201.9,-186 1201.9,-186 1201.9,-227.97 1201.9,-227.97"/>
<polygon fill="black" stroke="black" points="1198.4,-227.97 1201.9,-237.97 1205.4,-227.97 1198.4,-227.97"/>
</g>
<!-- MediaModule -->
<g id="node6" class="node">
<title>MediaModule</title>
<polygon fill="#8dd3c7" stroke="black" points="1350.81,-274 1347.81,-278 1326.81,-278 1323.81,-274 1255.19,-274 1255.19,-238 1350.81,-238 1350.81,-274"/>
<text text-anchor="middle" x="1303" y="-251.8" font-family="Times,serif" font-size="14.00">MediaModule</text>
</g>
<!-- DrizzleModule&#45;&gt;MediaModule -->
<g id="edge25" class="edge">
<title>DrizzleModule&#45;&gt;MediaModule</title>
<path fill="none" stroke="black" d="M1326.83,-198.01C1326.83,-198.01 1326.83,-227.85 1326.83,-227.85"/>
<polygon fill="black" stroke="black" points="1323.33,-227.85 1326.83,-237.85 1330.33,-227.85 1323.33,-227.85"/>
</g>
<!-- DrizzleModule&#45;&gt;AppModule -->
<g id="edge3" class="edge">
<title>DrizzleModule&#45;&gt;AppModule</title>
<path fill="none" stroke="black" d="M1250.59,-174C1246.59,-174 1244.06,-174 1244.06,-174 1244.06,-174 1244.06,-338 1244.06,-338 1244.06,-338 1129.9,-338 1129.9,-338"/>
<polygon fill="black" stroke="black" points="1129.9,-334.5 1119.9,-338 1129.9,-341.5 1129.9,-334.5"/>
</g>
<!-- DrizzleService  -->
<g id="node15" class="node">
<title>DrizzleService </title>
<polygon fill="#fb8072" stroke="black" points="1665.17,-274 1562.83,-274 1562.83,-238 1665.17,-238 1665.17,-274"/>
<text text-anchor="middle" x="1614" y="-251.8" font-family="Times,serif" font-size="14.00">DrizzleService </text>
</g>
<!-- DrizzleModule&#45;&gt;DrizzleService  -->
<g id="edge15" class="edge">
<title>DrizzleModule&#45;&gt;DrizzleService </title>
<path fill="none" stroke="black" stroke-dasharray="5,2" d="M1351.29,-174C1439.77,-174 1614,-174 1614,-174 1614,-174 1614,-227.8 1614,-227.8"/>
<polygon fill="black" stroke="black" points="1610.5,-227.8 1614,-237.8 1617.5,-227.8 1610.5,-227.8"/>
</g>
<!-- HealthModule&#45;&gt;AppModule -->
<g id="edge4" class="edge">
<title>HealthModule&#45;&gt;AppModule</title>
<path fill="none" stroke="black" d="M1064.06,-274.01C1064.06,-274.01 1064.06,-303.85 1064.06,-303.85"/>
<polygon fill="black" stroke="black" points="1060.56,-303.85 1064.06,-313.85 1067.56,-303.85 1060.56,-303.85"/>
</g>
<!-- HealthService  -->
<g id="node17" class="node">
<title>HealthService </title>
<polygon fill="#fb8072" stroke="black" points="1657.29,-350 1558.71,-350 1558.71,-314 1657.29,-314 1657.29,-350"/>
<text text-anchor="middle" x="1608" y="-327.8" font-family="Times,serif" font-size="14.00">HealthService </text>
</g>
<!-- HealthModule&#45;&gt;HealthService  -->
<g id="edge18" class="edge">
<title>HealthModule&#45;&gt;HealthService </title>
<path fill="none" stroke="black" stroke-dasharray="5,2" d="M1091.94,-274.24C1091.94,-289.57 1091.94,-309 1091.94,-309 1091.94,-309 1610.03,-309 1610.03,-309 1610.03,-309 1610.03,-309.49 1610.03,-309.49"/>
<polygon fill="black" stroke="black" points="1606.53,-303.88 1610.03,-313.88 1613.53,-303.88 1606.53,-303.88"/>
</g>
<!-- LunarModule&#45;&gt;AppModule -->
<g id="edge5" class="edge">
<title>LunarModule&#45;&gt;AppModule</title>
<path fill="none" stroke="black" d="M1221.99,-274.01C1221.99,-296.49 1221.99,-332 1221.99,-332 1221.99,-332 1130.04,-332 1130.04,-332"/>
<polygon fill="black" stroke="black" points="1130.04,-328.5 1120.04,-332 1130.04,-335.5 1130.04,-328.5"/>
</g>
<!-- LunarEventsService  -->
<g id="node19" class="node">
<title>LunarEventsService </title>
<polygon fill="#fb8072" stroke="black" points="2288.51,-350 2155.49,-350 2155.49,-314 2288.51,-314 2288.51,-350"/>
<text text-anchor="middle" x="2222" y="-327.8" font-family="Times,serif" font-size="14.00">LunarEventsService </text>
</g>
<!-- LunarModule&#45;&gt;LunarEventsService  -->
<g id="edge21" class="edge">
<title>LunarModule&#45;&gt;LunarEventsService </title>
<path fill="none" stroke="black" stroke-dasharray="5,2" d="M1175.5,-274.04C1175.5,-281.75 1175.5,-289 1175.5,-289 1175.5,-289 2222,-289 2222,-289 2222,-289 2222,-303.51 2222,-303.51"/>
<polygon fill="black" stroke="black" points="2218.5,-303.51 2222,-313.51 2225.5,-303.51 2218.5,-303.51"/>
</g>
<!-- LunarService  -->
<g id="node20" class="node">
<title>LunarService </title>
<polygon fill="#fb8072" stroke="black" points="2137.41,-350 2042.59,-350 2042.59,-314 2137.41,-314 2137.41,-350"/>
<text text-anchor="middle" x="2090" y="-327.8" font-family="Times,serif" font-size="14.00">LunarService </text>
</g>
<!-- LunarModule&#45;&gt;LunarService  -->
<g id="edge22" class="edge">
<title>LunarModule&#45;&gt;LunarService </title>
<path fill="none" stroke="black" stroke-dasharray="5,2" d="M1160.01,-274.11C1160.01,-283.9 1160.01,-294 1160.01,-294 1160.01,-294 2090,-294 2090,-294 2090,-294 2090,-303.89 2090,-303.89"/>
<polygon fill="black" stroke="black" points="2086.5,-303.89 2090,-313.89 2093.5,-303.89 2086.5,-303.89"/>
</g>
<!-- MediaModule&#45;&gt;AppModule -->
<g id="edge6" class="edge">
<title>MediaModule&#45;&gt;AppModule</title>
<path fill="none" stroke="black" d="M1326.83,-274.23C1326.83,-300.01 1326.83,-344 1326.83,-344 1326.83,-344 1129.93,-344 1129.93,-344"/>
<polygon fill="black" stroke="black" points="1129.93,-340.5 1119.93,-344 1129.93,-347.5 1129.93,-340.5"/>
</g>
<!-- MediaService  -->
<g id="node23" class="node">
<title>MediaService </title>
<polygon fill="#fb8072" stroke="black" points="2580.74,-350 2483.26,-350 2483.26,-314 2580.74,-314 2580.74,-350"/>
<text text-anchor="middle" x="2532" y="-327.8" font-family="Times,serif" font-size="14.00">MediaService </text>
</g>
<!-- MediaModule&#45;&gt;MediaService  -->
<g id="edge26" class="edge">
<title>MediaModule&#45;&gt;MediaService </title>
<path fill="none" stroke="black" stroke-dasharray="5,2" d="M1279.17,-274.12C1279.17,-276.97 1279.17,-279 1279.17,-279 1279.17,-279 2532,-279 2532,-279 2532,-279 2532,-303.76 2532,-303.76"/>
<polygon fill="black" stroke="black" points="2528.5,-303.76 2532,-313.76 2535.5,-303.76 2528.5,-303.76"/>
</g>
<!-- SecurityModule -->
<g id="node7" class="node">
<title>SecurityModule</title>
<polygon fill="#8dd3c7" stroke="black" points="1030.2,-198 1027.2,-202 1006.2,-202 1003.2,-198 923.8,-198 923.8,-162 1030.2,-162 1030.2,-198"/>
<text text-anchor="middle" x="977" y="-175.8" font-family="Times,serif" font-size="14.00">SecurityModule</text>
</g>
<!-- SecurityModule&#45;&gt;AppModule -->
<g id="edge7" class="edge">
<title>SecurityModule&#45;&gt;AppModule</title>
<path fill="none" stroke="black" d="M1020.67,-198.2C1020.67,-237.33 1020.67,-326 1020.67,-326 1020.67,-326 1026.34,-326 1026.34,-326"/>
<polygon fill="black" stroke="black" points="1026.34,-329.5 1036.34,-326 1026.34,-322.5 1026.34,-329.5"/>
</g>
<!-- AuthService -->
<g id="node10" class="node">
<title>AuthService</title>
<ellipse fill="#fdb462" stroke="black" cx="245" cy="-180" rx="59.11" ry="18"/>
<text text-anchor="middle" x="245" y="-175.8" font-family="Times,serif" font-size="14.00">AuthService</text>
</g>
<!-- AuthService&#45;&gt;AuthModule -->
<g id="edge10" class="edge">
<title>AuthService&#45;&gt;AuthModule</title>
<path fill="none" stroke="black" d="M245,-198.23C245,-222.93 245,-264 245,-264 245,-264 914.4,-264 914.4,-264"/>
<polygon fill="black" stroke="black" points="914.4,-267.5 924.4,-264 914.4,-260.5 914.4,-267.5"/>
</g>
<!-- GoogleStrategy -->
<g id="node11" class="node">
<title>GoogleStrategy</title>
<ellipse fill="#fdb462" stroke="black" cx="96" cy="-180" rx="71.79" ry="18"/>
<text text-anchor="middle" x="96" y="-175.8" font-family="Times,serif" font-size="14.00">GoogleStrategy</text>
</g>
<!-- GoogleStrategy&#45;&gt;AuthModule -->
<g id="edge11" class="edge">
<title>GoogleStrategy&#45;&gt;AuthModule</title>
<path fill="none" stroke="black" d="M96,-198.01C96,-224.02 96,-269 96,-269 96,-269 914.16,-269 914.16,-269"/>
<polygon fill="black" stroke="black" points="914.16,-272.5 924.16,-269 914.16,-265.5 914.16,-272.5"/>
</g>
<!-- JwtStrategy -->
<g id="node12" class="node">
<title>JwtStrategy</title>
<ellipse fill="#fdb462" stroke="black" cx="681" cy="-180" rx="56.76" ry="18"/>
<text text-anchor="middle" x="681" y="-175.8" font-family="Times,serif" font-size="14.00">JwtStrategy</text>
</g>
<!-- JwtStrategy&#45;&gt;AuthModule -->
<g id="edge12" class="edge">
<title>JwtStrategy&#45;&gt;AuthModule</title>
<path fill="none" stroke="black" d="M681,-198.13C681,-218.57 681,-249 681,-249 681,-249 914.41,-249 914.41,-249"/>
<polygon fill="black" stroke="black" points="914.41,-252.5 924.41,-249 914.41,-245.5 914.41,-252.5"/>
</g>
<!-- LocalStrategy -->
<g id="node13" class="node">
<title>LocalStrategy</title>
<ellipse fill="#fdb462" stroke="black" cx="541" cy="-180" rx="65.41" ry="18"/>
<text text-anchor="middle" x="541" y="-175.8" font-family="Times,serif" font-size="14.00">LocalStrategy</text>
</g>
<!-- LocalStrategy&#45;&gt;AuthModule -->
<g id="edge13" class="edge">
<title>LocalStrategy&#45;&gt;AuthModule</title>
<path fill="none" stroke="black" d="M541,-198.29C541,-220.21 541,-254 541,-254 541,-254 914.31,-254 914.31,-254"/>
<polygon fill="black" stroke="black" points="914.31,-257.5 924.31,-254 914.31,-250.5 914.31,-257.5"/>
</g>
<!-- PhoneStrategy -->
<g id="node14" class="node">
<title>PhoneStrategy</title>
<ellipse fill="#fdb462" stroke="black" cx="390" cy="-180" rx="67.22" ry="18"/>
<text text-anchor="middle" x="390" y="-175.8" font-family="Times,serif" font-size="14.00">PhoneStrategy</text>
</g>
<!-- PhoneStrategy&#45;&gt;AuthModule -->
<g id="edge14" class="edge">
<title>PhoneStrategy&#45;&gt;AuthModule</title>
<path fill="none" stroke="black" d="M390,-198.32C390,-221.66 390,-259 390,-259 390,-259 914.08,-259 914.08,-259"/>
<polygon fill="black" stroke="black" points="914.08,-262.5 924.08,-259 914.08,-255.5 914.08,-262.5"/>
</g>
<!-- DrizzleService -->
<g id="node16" class="node">
<title>DrizzleService</title>
<ellipse fill="#fdb462" stroke="black" cx="1471" cy="-256" rx="68.31" ry="18"/>
<text text-anchor="middle" x="1471" y="-251.8" font-family="Times,serif" font-size="14.00">DrizzleService</text>
</g>
<!-- DrizzleService&#45;&gt;DrizzleModule -->
<g id="edge16" class="edge">
<title>DrizzleService&#45;&gt;DrizzleModule</title>
<path fill="none" stroke="black" d="M1471,-237.97C1471,-217.23 1471,-186 1471,-186 1471,-186 1361.55,-186 1361.55,-186"/>
<polygon fill="black" stroke="black" points="1361.55,-182.5 1351.55,-186 1361.55,-189.5 1361.55,-182.5"/>
</g>
<!-- HealthService -->
<g id="node18" class="node">
<title>HealthService</title>
<ellipse fill="#fdb462" stroke="black" cx="1469" cy="-332" rx="65.97" ry="18"/>
<text text-anchor="middle" x="1469" y="-327.8" font-family="Times,serif" font-size="14.00">HealthService</text>
</g>
<!-- HealthService&#45;&gt;HealthModule -->
<g id="edge19" class="edge">
<title>HealthService&#45;&gt;HealthModule</title>
<path fill="none" stroke="black" d="M1419.7,-320C1326.23,-320 1132.46,-320 1132.46,-320 1132.46,-320 1132.46,-256 1132.46,-256 1132.46,-256 1131.88,-256 1131.88,-256"/>
<polygon fill="black" stroke="black" points="1136.63,-252.5 1126.63,-256 1136.63,-259.5 1136.63,-252.5"/>
</g>
<!-- LunarEventsService -->
<g id="node21" class="node">
<title>LunarEventsService</title>
<ellipse fill="#fdb462" stroke="black" cx="1930" cy="-332" rx="89.16" ry="18"/>
<text text-anchor="middle" x="1930" y="-327.8" font-family="Times,serif" font-size="14.00">LunarEventsService</text>
</g>
<!-- LunarEventsService&#45;&gt;LunarModule -->
<g id="edge23" class="edge">
<title>LunarEventsService&#45;&gt;LunarModule</title>
<path fill="none" stroke="black" d="M1930,-313.96C1930,-306.25 1930,-299 1930,-299 1930,-299 1206.5,-299 1206.5,-299 1206.5,-299 1206.5,-284.49 1206.5,-284.49"/>
<polygon fill="black" stroke="black" points="1210,-284.49 1206.5,-274.49 1203,-284.49 1210,-284.49"/>
</g>
<!-- LunarService -->
<g id="node22" class="node">
<title>LunarService</title>
<ellipse fill="#fdb462" stroke="black" cx="1760" cy="-332" rx="63.1" ry="18"/>
<text text-anchor="middle" x="1760" y="-327.8" font-family="Times,serif" font-size="14.00">LunarService</text>
</g>
<!-- LunarService&#45;&gt;LunarModule -->
<g id="edge24" class="edge">
<title>LunarService&#45;&gt;LunarModule</title>
<path fill="none" stroke="black" d="M1760,-313.79C1760,-308.45 1760,-304 1760,-304 1760,-304 1191,-304 1191,-304 1191,-304 1191,-284.15 1191,-284.15"/>
<polygon fill="black" stroke="black" points="1194.5,-284.15 1191,-274.15 1187.5,-284.15 1194.5,-284.15"/>
</g>
<!-- MediaService -->
<g id="node24" class="node">
<title>MediaService</title>
<ellipse fill="#fdb462" stroke="black" cx="2394" cy="-332" rx="64.82" ry="18"/>
<text text-anchor="middle" x="2394" y="-327.8" font-family="Times,serif" font-size="14.00">MediaService</text>
</g>
<!-- MediaService&#45;&gt;MediaModule -->
<g id="edge27" class="edge">
<title>MediaService&#45;&gt;MediaModule</title>
<path fill="none" stroke="black" d="M2394,-313.85C2394,-300.26 2394,-284 2394,-284 2394,-284 1303,-284 1303,-284 1303,-284 1303,-283.02 1303,-283.02"/>
<polygon fill="black" stroke="black" points="1306.5,-284.21 1303,-274.21 1299.5,-284.21 1306.5,-284.21"/>
</g>
<!-- CsrfMiddleware -->
<g id="node25" class="node">
<title>CsrfMiddleware</title>
<ellipse fill="#fdb462" stroke="black" cx="977" cy="-104" rx="74.13" ry="18"/>
<text text-anchor="middle" x="977" y="-99.8" font-family="Times,serif" font-size="14.00">CsrfMiddleware</text>
</g>
<!-- CsrfMiddleware&#45;&gt;SecurityModule -->
<g id="edge28" class="edge">
<title>CsrfMiddleware&#45;&gt;SecurityModule</title>
<path fill="none" stroke="black" d="M977,-122.01C977,-122.01 977,-151.85 977,-151.85"/>
<polygon fill="black" stroke="black" points="973.5,-151.85 977,-161.85 980.5,-151.85 973.5,-151.85"/>
</g>
</g>
</svg>
